<?xml version="1.0" encoding="utf-8"?>
<!-- Generator: Adobe Illustrator 23.1.0, SVG Export Plug-In . SVG Version: 6.00 Build 0)  -->
<svg version="1.1" id="Capa_1" xmlns:v="https://vecta.io/nano"
	 xmlns="http://www.w3.org/2000/svg" xmlns:xlink="http://www.w3.org/1999/xlink" x="0px" y="0px" viewBox="0 0 330 330"
	 style="enable-background:new 0 0 330 330;" xml:space="preserve">
<style type="text/css">
	.st0{fill-rule:evenodd;clip-rule:evenodd;}
</style>
<path class="st0" d="M265,0H65c-8.3,0-15,6.7-15,15v300c0,8.3,6.7,15,15,15c3.4,0,6.7-1.2,9.4-3.3l90.6-72.5l90.6,72.5
	c2.7,2.1,6,3.3,9.4,3.3c2.2,0,4.4-0.5,6.5-1.5c5.2-2.5,8.5-7.8,8.5-13.5V15C280,6.7,273.3,0,265,0z M250,283.8V30H80v253.8
	l75.6-60.5c2.7-2.2,6.1-3.3,9.4-3.3s6.6,1.1,9.4,3.3L250,283.8L250,283.8z"/>
</svg>
