<?xml version="1.0" encoding="utf-8"?>
<!-- Generator: Adobe Illustrator 23.1.0, SVG Export Plug-In . SVG Version: 6.00 Build 0)  -->
<svg version="1.1" id="Capa_1" xmlns:v="https://vecta.io/nano"
	 xmlns="http://www.w3.org/2000/svg" xmlns:xlink="http://www.w3.org/1999/xlink" x="0px" y="0px" viewBox="0 0 16 16"
	 style="enable-background:new 0 0 16 16;" xml:space="preserve">
<style type="text/css">
	.st0{fill-rule:evenodd;clip-rule:evenodd;}
</style>
<path class="st0" d="M14,2c0.6,0,1,0.4,1,1v8c0,0.6-0.4,1-1,1H4.7H4.4l-0.2,0.1L1,14V3c0-0.6,0.4-1,1-1H14 M14,1c1.1,0,2,0.9,2,2v8
	c0,1.1-0.9,2-2,2H4.7l-3.2,1.9C1.3,14.9,1.2,15,1,15c0,0,0,0,0,0h0c0,0,0,0,0,0c-0.6,0-1-0.4-1-1V3c0-1.1,0.9-2,2-2H14L14,1z"/>
</svg>
