<?xml version="1.0" encoding="utf-8"?>
<!-- Generator: Adobe Illustrator 23.1.0, SVG Export Plug-In . SVG Version: 6.00 Build 0)  -->
<svg version="1.1" id="Capa_1" xmlns:v="https://vecta.io/nano"
	 xmlns="http://www.w3.org/2000/svg" xmlns:xlink="http://www.w3.org/1999/xlink" x="0px" y="0px" viewBox="0 0 486.9 486.9"
	 style="enable-background:new 0 0 486.9 486.9;" xml:space="preserve">
<style type="text/css">
	.st0{fill-rule:evenodd;clip-rule:evenodd;}
</style>
<path class="st0" d="M462.8,179.3c-12.3-10.9-27.7-16.8-43.3-16.8h-15.8h-56.9h-32.4V83.9c0-33-9.3-56.9-27.7-70.9
	c-29.1-22.2-69.2-9.5-70.9-8.9c-5,1.7-8.4,6.4-8.4,11.8v88c0,28.7-13.2,53-39.3,72.4c-19.5,14.5-39.4,20.8-41.5,21.5l-2.9,0.7
	c-4.3-7.6-12.2-12.6-21.3-12.6H24.7C11.1,186,0,197.5,0,211.6v236.6c0,14.1,11.1,25.6,24.7,25.6h77.9c7.6,0,14.5-3.6,19-9.2
	c12.5,13.8,30.2,22.4,49.4,22.4h65.9h6.8h135.1c45.9,0,75.2-24.9,80.4-68.4l26.9-172.9C489.8,220.8,480.9,195.3,462.8,179.3
	L462.8,179.3z M103.2,448.2L103.2,448.2l0.1-236.6c0,0,0,0,0,0c0-0.4-0.3-0.7-0.7-0.7H24.7c0,0,0,0,0,0c-0.4,0-0.7,0.3-0.7,0.7
	v236.6c0,0,0,0,0,0c0,0.4,0.3,0.7,0.7,0.7h77.8c0,0,0,0,0,0C102.9,448.9,103.2,448.6,103.2,448.2L103.2,448.2z M447.2,198.2
	c-10.8-9.4-23.1-10.6-27.7-10.9h-15.8h-56.9h-44.4c-6.6,0-12-5.6-12-12.4v-91c0-24.7-6-41.8-17.8-50.8c-12.9-9.9-30.7-9-41.1-7.3v78
	c0,36.9-17.2,69.1-49.9,93.1c-23.9,17.6-47.6,24.6-48.6,24.9c-0.2,0-0.3,0.1-0.5,0.1l-5.2,1.2v198.5c0.2,0.7,0.4,1.5,0.5,2.2
	c3.3,21.8,21.8,38.2,43.1,38.2h65.9h6.8h135.1c33.9,0,52.9-15.7,56.6-46.7c0.1-0.2,0.1-0.4,0.1-0.5l26.8-173.2
	C462.5,239.7,465.8,214.4,447.2,198.2z"/>
</svg>
