<?xml version="1.0" encoding="utf-8"?>
<!-- Generator: Adobe Illustrator 23.1.0, SVG Export Plug-In . SVG Version: 6.00 Build 0)  -->
<svg version="1.1" id="Capa_1" xmlns:v="https://vecta.io/nano"
	 xmlns="http://www.w3.org/2000/svg" xmlns:xlink="http://www.w3.org/1999/xlink" x="0px" y="0px" viewBox="0 0 65.5 65.5"
	 style="enable-background:new 0 0 65.5 65.5;" xml:space="preserve">
<style type="text/css">
	.st0{fill-rule:evenodd;clip-rule:evenodd;}
</style>
<path class="st0" d="M57.4,5c-3.7-3.4-7.5-5-11.8-5c-5.1,0-9.7,2.3-14.1,4.6c-4,2-7.8,3.9-11.4,3.9c-2.7,0-5.2-1.1-7.7-3.4
	c-0.9-0.8-2.1-1-3.2-0.5C8.1,4.9,7.4,5.9,7.3,7C7.1,7.4,7.1,7.8,7.1,8.2v54.3c0,1.7,1.3,3,3,3c1.7,0,3-1.3,3-3V44.8
	c2.2,1.1,4.5,1.7,7,1.7c5.1,0,9.7-2.3,14.1-4.6c4-2,7.8-3.9,11.4-3.9c2.7,0,5.2,1.1,7.7,3.4c0.9,0.8,2.1,1,3.2,0.5
	c1.1-0.5,1.8-1.6,1.8-2.7v-32C58.4,6.4,58,5.6,57.4,5z M52.4,8.6C50.2,6.8,48,6,45.6,6C42,6,38.2,7.9,34.2,9.9
	c-4.5,2.2-9.1,4.6-14.1,4.6c-2.3,0-4.7-0.5-6.8-1.5v24.9c2.2,1.8,4.4,2.6,6.8,2.6h0c3.6,0,7.4-1.9,11.4-3.9
	c4.5-2.2,9.1-4.6,14.1-4.6c2.4,0,4.6,0.5,6.8,1.5V8.6z"/>
</svg>
