<?xml version="1.0" encoding="utf-8"?>
<!-- Generator: Adobe Illustrator 23.1.0, SVG Export Plug-In . SVG Version: 6.00 Build 0)  -->
<svg version="1.1" id="Capa_1" xmlns:v="https://vecta.io/nano"
	 xmlns="http://www.w3.org/2000/svg" xmlns:xlink="http://www.w3.org/1999/xlink" x="0px" y="0px" viewBox="0 0 65.5 65.5"
	 style="enable-background:new 0 0 65.5 65.5;" xml:space="preserve">
<style type="text/css">
	.st0{fill-rule:evenodd;clip-rule:evenodd;}
</style>
<path class="st0" d="M46,0c-4.8,0-9.2,2.1-14.1,4.6c-4.3,2.1-8.3,4.1-12.2,4.1c-3.1,0-5.9-1.2-8.6-3.8c-0.4-0.3-0.8-0.5-1.3-0.5
	c-0.3,0-0.6,0.1-0.8,0.2l-0.1,0l-0.1,0C8.1,4.9,7.6,5.5,7.5,6.3l0,0.2L7.4,6.7C7.3,6.8,7.3,7.1,7.3,7.4v56c0,1.2,0.9,2.1,2.1,2.1
	c1.2,0,2.1-0.9,2.1-2.1V45.2v-1.7l1.5,0.7c2.2,1.1,4.4,1.6,6.8,1.6c4.8,0,9.2-2.1,14.1-4.6C38,39.1,42,37.1,46,37.1
	c3.1,0,5.9,1.2,8.6,3.8c0.4,0.3,0.8,0.5,1.3,0.5c0.3,0,0.6-0.1,0.8-0.2c0.7-0.3,1.3-1.1,1.3-1.8v-33V6.3l0-0.1
	c0.1-0.4-0.2-1-0.6-1.4C53.9,1.6,50.2,0,46,0z M54.1,7.4L53.7,7c-2.4-2-4.9-2.9-7.7-2.9c-4,0-8,2-12.2,4.1L33,8.6
	c-4.3,2.1-8.7,4.3-13.3,4.3c-2.3,0-4.6-0.5-6.6-1.4l-1.5-0.7v1.6v25.7v0.5l0.4,0.3c2.4,2,4.9,2.9,7.7,2.9c4,0,8-2,12.2-4.1l0.8-0.4
	C37,35.2,41.4,33,46,33c2.3,0,4.4,0.5,6.6,1.5l1.5,0.7v-1.6V7.8V7.4z"/>
</svg>
